<svg width="32" height="32" viewBox="0 0 32 32" fill="none" xmlns="http://www.w3.org/2000/svg">
<path fill-rule="evenodd" clip-rule="evenodd" d="M18.1778 11.8561C17.4726 11.8573 16.7676 11.8586 16.0626 11.8586C13.9477 11.8586 11.8307 11.8586 9.70863 11.8477C7.9014 11.8548 7.04073 12.6283 6.99614 14.4555C6.93879 16.9302 6.93879 19.4 6.99614 21.8649C7.03186 23.439 7.9641 24.2757 9.51725 24.2974C9.75165 24.3002 9.98677 24.3071 10.222 24.3139C10.8847 24.3331 11.5489 24.3523 12.2012 24.2829C13.5074 24.142 14.5399 24.4944 15.2967 25.5968C15.7316 26.2293 16.161 26.3125 16.6405 25.6184C17.392 24.5306 18.4335 24.1528 19.736 24.2829C20.4011 24.3488 21.0662 24.3307 21.7312 24.3127C21.9608 24.3064 22.1904 24.3002 22.42 24.2974C24.077 24.2775 24.9537 23.4227 24.9715 21.7294C24.9979 19.2908 24.9979 16.8537 24.9715 14.4175C24.9537 12.7296 24.0751 11.8693 22.4092 11.8586C20.9992 11.8513 19.5883 11.8537 18.1778 11.8561ZM12.4081 16.9099C12.0011 16.9099 11.6709 17.2432 11.6709 17.6543V18.399H12.4081C12.8153 18.399 13.1453 18.0655 13.1453 17.6543C13.1453 17.2432 12.8153 16.9099 12.4081 16.9099ZM15.2585 17.6543C15.2585 17.2432 15.5886 16.9099 15.9957 16.9099C16.4028 16.9099 16.7328 17.2432 16.7328 17.6543C16.7328 18.0655 16.4028 18.399 15.9957 18.399H15.2585V17.6543ZM19.5834 16.9099C19.1762 16.9099 18.8462 17.2432 18.8462 17.6543V18.399H19.5834C19.9904 18.399 20.3204 18.0655 20.3204 17.6543C20.3204 17.2432 19.9904 16.9099 19.5834 16.9099Z" fill="url(#paint0_linear_158_184)"/>
<path d="M15.7473 0C21.7022 0 26.8178 3.75173 28.4515 9.15702C28.5034 9.32869 28.5624 9.49861 28.5983 9.6757C28.6859 10.1057 28.609 10.4853 28.1295 10.592C27.7054 10.6859 27.4781 10.4113 27.3421 10.0335C27.122 9.41371 26.8698 8.80648 26.6586 8.18299C26.4796 7.64087 26.2255 7.4221 25.7067 7.83422C25.1878 8.24622 24.8872 7.99506 24.5597 7.51971C20.2313 1.2542 11.7786 1.22166 7.47891 7.45824C7.10137 8.00048 6.76321 8.23174 6.19235 7.77452C5.79513 7.45471 5.55721 7.61732 5.39973 8.04381C5.17068 8.66188 4.91296 9.26911 4.71076 9.89436C4.56592 10.3425 4.35291 10.7257 3.84657 10.5739C3.2954 10.4094 3.32408 9.95041 3.45288 9.46246C4.6929 4.7493 9.22709 0.748179 14.0206 0.155417C14.6774 0.0759006 15.3322 0.0361491 15.7473 0Z" fill="url(#paint1_linear_158_184)"/>
<path d="M31.9941 18.4442C31.9941 19.4075 32.0066 20.3707 31.9941 21.3358C31.9744 22.6749 31.1782 23.5406 29.8665 23.5984C29.4641 23.6165 29.3477 23.705 29.2796 24.1406C29.1008 25.2754 28.1632 24.8797 27.4904 24.9123C26.8605 24.9429 26.6154 24.5272 26.6172 23.9165C26.6172 20.2466 26.6172 16.5756 26.6172 12.9035C26.6172 12.2944 26.8605 11.8806 27.485 11.8914C28.1721 11.904 29.1044 11.5498 29.2743 12.6649C29.3477 13.1276 29.5158 13.1456 29.8827 13.1746C31.239 13.2829 31.9762 14.1016 31.9941 15.4733C32.0049 16.4582 31.9941 17.4503 31.9941 18.4442Z" fill="url(#paint2_linear_158_184)"/>
<path d="M5.40038 18.4469C5.40038 20.1909 5.38969 21.9367 5.40038 23.6878C5.40038 24.3113 5.34667 24.8318 4.57374 24.924C3.30686 25.0722 2.89543 24.9113 2.72895 24.0204C2.65738 23.6372 2.49091 23.6372 2.20281 23.6155C0.77141 23.5017 0.0180411 22.6812 0.0108719 21.2191C0.000178957 19.2927 -0.0069902 17.3681 0.0108719 15.4362C0.0235091 14.1295 0.792918 13.2839 2.07401 13.1718C2.46941 13.1374 2.64839 13.1085 2.74864 12.6169C2.96687 11.5453 3.89741 11.8941 4.58808 11.8941C5.24108 11.8941 5.4022 12.3784 5.40038 12.9549C5.40038 14.7886 5.40038 16.6235 5.40038 18.4596V18.4469Z" fill="url(#paint3_linear_158_184)"/>
<path d="M22.3825 30.3052C22.055 30.3052 21.7257 30.3286 21.4002 30.3052C20.8794 30.2563 20.4535 30.343 20.2783 30.9214C20.2652 30.9486 20.2489 30.974 20.2299 30.9973C19.2815 32.3472 15.3988 32.331 14.4789 30.972C14.2684 30.6789 14.1371 30.3353 14.0981 29.9754C14.0592 29.6154 14.1138 29.2513 14.2568 28.9193C14.3997 28.5871 14.626 28.2984 14.9131 28.0816C15.2003 27.8647 15.5385 27.7273 15.8944 27.6829C16.9051 27.5647 17.9263 27.5683 18.9362 27.6937C19.5052 27.7551 19.9937 28.0046 20.2281 28.5323C20.4965 29.1431 20.9438 29.2425 21.52 29.1992C22.2911 29.1449 23.0695 29.1882 23.8461 29.1178C25.6355 28.9569 26.9005 28.0191 27.6716 26.407C27.8721 25.9877 28.0779 25.5865 28.5825 25.854C29.0871 26.1214 28.8705 26.5624 28.6773 26.9491C27.6526 28.9973 26.0065 30.1124 23.7387 30.2943C23.2951 30.3286 22.8441 30.2943 22.3985 30.2943L22.3825 30.3052Z" fill="url(#paint4_linear_158_184)"/>
<defs>
<linearGradient id="paint0_linear_158_184" x1="15.9722" y1="11.8477" x2="15.9722" y2="26.1058" gradientUnits="userSpaceOnUse">
<stop stop-color="#16A34A"/>
<stop offset="1" stop-color="#22C55E"/>
</linearGradient>
<linearGradient id="paint1_linear_158_184" x1="16.0024" y1="0" x2="16.0024" y2="10.6105" gradientUnits="userSpaceOnUse">
<stop stop-color="#16A34A"/>
<stop offset="1" stop-color="#22C55E"/>
</linearGradient>
<linearGradient id="paint2_linear_158_184" x1="29.3084" y1="11.8477" x2="29.3084" y2="24.9534" gradientUnits="userSpaceOnUse">
<stop stop-color="#16A34A"/>
<stop offset="1" stop-color="#22C55E"/>
</linearGradient>
<linearGradient id="paint3_linear_158_184" x1="2.7002" y1="11.8398" x2="2.7002" y2="24.9726" gradientUnits="userSpaceOnUse">
<stop stop-color="#16A34A"/>
<stop offset="1" stop-color="#22C55E"/>
</linearGradient>
<linearGradient id="paint4_linear_158_184" x1="21.4897" y1="25.7676" x2="21.4897" y2="32.0006" gradientUnits="userSpaceOnUse">
<stop stop-color="#16A34A"/>
<stop offset="1" stop-color="#22C55E"/>
</linearGradient>
</defs>
</svg>
